<?xml version="1.0" standalone="no"?>
<!DOCTYPE svg PUBLIC "-//W3C//DTD SVG 20010904//EN"
 "http://www.w3.org/TR/2001/REC-SVG-20010904/DTD/svg10.dtd">
<svg version="1.0" xmlns="http://www.w3.org/2000/svg"
 width="525.000000pt" height="619.000000pt" viewBox="0 0 525.000000 619.000000"
 preserveAspectRatio="xMidYMid meet">



<g transform="translate(0.000000,619.000000) scale(0.100000,-0.100000)"
fill="#FF0000" stroke="none">
<path d="M3613 5514 c-7 -3 -13 -12 -13 -19 0 -8 -7 -18 -15 -23 -9 -4 -18
-21 -21 -38 -3 -16 -9 -30 -14 -32 -5 -2 -7 -9 -4 -17 3 -7 1 -16 -5 -20 -6
-3 -11 -1 -11 4 0 6 -4 11 -10 11 -5 0 -10 -13 -10 -29 0 -16 -7 -34 -15 -41
-12 -10 -15 -10 -15 0 0 7 -9 1 -20 -13 -11 -14 -20 -29 -20 -34 0 -4 -14 -21
-31 -37 l-30 -29 6 29 c4 22 2 19 -12 -11 -9 -22 -25 -53 -35 -70 l-18 -30 -1
25 c-1 18 -5 12 -15 -22 -11 -35 -20 -48 -37 -50 -15 -2 -23 -12 -27 -34 -4
-16 -19 -48 -34 -70 l-26 -39 5 35 6 35 -16 -37 c-11 -24 -21 -35 -31 -31 -9
3 -14 -2 -14 -15 0 -12 -6 -25 -14 -29 -8 -4 -24 -25 -36 -46 -17 -28 -25 -35
-31 -25 -6 9 -9 6 -9 -10 0 -13 -11 -34 -25 -48 -14 -14 -25 -30 -25 -37 0 -7
-15 -24 -34 -39 -22 -18 -36 -38 -39 -60 -8 -52 -12 -67 -21 -75 -5 -4 -6 10
-3 32 6 40 6 40 -5 8 -6 -18 -14 -33 -18 -33 -4 0 -6 -16 -5 -35 0 -19 -3 -35
-7 -35 -4 0 -5 -7 -1 -15 3 -9 -2 -22 -12 -29 -13 -9 -15 -15 -6 -20 8 -5 8
-13 1 -26 -7 -13 -7 -21 0 -25 5 -3 10 -1 10 5 0 6 5 8 11 4 8 -5 8 -8 0 -14
-7 -4 -13 -18 -14 -31 0 -13 -5 -27 -11 -31 -6 -4 -5 -12 2 -21 13 -15 6 -51
-8 -42 -12 7 -6 -20 7 -36 19 -25 25 -59 11 -64 -13 -5 -17 -69 -4 -82 3 -3 6
-17 6 -31 0 -22 -2 -23 -17 -11 -17 13 -17 12 0 -13 10 -16 13 -28 8 -28 -5 0
-4 -11 2 -25 7 -14 15 -25 19 -25 4 0 5 -7 2 -15 -9 -23 -30 -18 -61 13 -15
15 -26 28 -25 30 8 10 0 14 -10 4 -21 -21 -27 -13 -15 18 13 35 6 46 -22 30
-16 -8 -21 -8 -21 2 -1 8 -5 7 -14 -4 -7 -10 -17 -18 -21 -18 -4 0 -2 7 5 15
16 19 7 69 -19 101 -17 21 -20 22 -26 7 -3 -10 -1 -19 4 -21 12 -4 15 -32 3
-32 -4 0 -13 14 -21 30 -15 35 -35 35 -38 -1 -2 -21 -2 -21 5 -5 13 30 21 5
12 -34 -4 -19 -8 -27 -9 -17 -1 10 -5 16 -10 13 -5 -3 -7 -16 -3 -29 5 -22 5
-22 -16 -3 -24 21 -27 16 -11 -17 9 -20 9 -20 -4 -4 -8 9 -20 17 -27 17 -10 0
-9 -4 1 -17 12 -15 12 -16 -3 -10 -12 4 -15 2 -11 -9 4 -10 -2 -14 -20 -14
-22 0 -25 -4 -21 -26 4 -23 2 -26 -16 -21 -21 5 -21 5 -3 -15 10 -12 12 -18 6
-14 -7 4 -13 2 -13 -3 0 -6 -11 -11 -24 -11 -34 0 -56 -10 -56 -25 0 -7 -7
-15 -15 -19 -10 -4 -15 1 -15 14 0 11 -5 20 -10 20 -6 0 -8 10 -4 24 3 13 1
27 -5 30 -6 4 -11 12 -11 17 0 6 5 7 10 4 7 -4 8 3 4 21 -5 19 -4 25 5 20 6
-4 11 -14 11 -22 0 -8 4 -12 10 -9 6 4 5 13 -2 24 -9 14 -7 23 7 42 11 15 15
17 12 7 -4 -10 -2 -18 3 -18 6 0 10 5 10 11 0 7 11 22 25 35 28 25 34 49 10
40 -8 -3 -14 -2 -14 2 1 4 1 14 0 22 -1 12 -5 11 -16 -4 -8 -10 -12 -23 -9
-27 3 -5 1 -16 -4 -25 -6 -12 -9 -8 -9 16 0 21 9 38 26 53 39 32 80 93 58 84
-20 -7 -23 13 -7 44 8 14 8 19 -1 17 -6 -2 -14 3 -16 10 -3 6 2 12 11 12 8 0
18 4 21 10 4 6 -1 7 -12 3 -16 -6 -16 -5 -4 10 12 15 12 17 -4 11 -13 -5 -16
-4 -11 4 5 8 2 10 -8 6 -9 -3 -16 -2 -16 4 0 6 5 12 11 14 14 5 21 58 7 58 -6
0 -8 9 -5 21 5 17 2 20 -14 16 -15 -4 -19 -2 -15 8 3 9 0 12 -10 8 -14 -5 -14
-3 -2 16 11 18 11 23 -1 30 -8 5 -11 16 -8 25 4 9 -1 19 -10 24 -10 6 -14 16
-10 28 7 18 6 18 -7 1 -12 -16 -14 -15 -19 10 -3 16 -15 39 -26 52 -12 13 -21
30 -21 38 0 7 -4 13 -10 13 -5 0 -10 8 -10 19 0 10 -7 24 -15 31 -8 7 -15 19
-15 26 0 8 -4 14 -10 14 -5 0 -10 7 -10 16 0 8 -4 13 -9 9 -5 -3 -15 11 -21
30 -6 19 -16 35 -21 35 -5 0 -9 8 -10 18 0 11 -5 7 -14 -13 l-14 -30 -1 28 c0
26 -1 27 -16 13 -17 -18 -44 -21 -44 -6 0 6 5 10 10 10 6 0 5 8 -2 19 -7 11
-16 17 -20 15 -4 -3 -8 -1 -8 5 0 5 4 11 9 13 5 2 3 9 -5 16 -12 11 -14 10
-14 -3 0 -31 -20 -4 -21 28 0 24 -2 28 -8 13 -7 -17 -8 -16 -24 7 -9 15 -17
31 -17 37 0 5 -4 10 -9 10 -5 0 -12 12 -16 27 -5 21 -8 24 -16 12 -7 -11 -9
-11 -9 -1 0 8 -8 30 -17 49 -14 31 -18 33 -24 17 -7 -16 -8 -16 -8 6 -1 29
-21 66 -21 40 0 -8 -22 10 -50 40 -28 30 -50 49 -50 43 0 -7 -7 -10 -15 -7
-11 5 -12 11 -4 25 10 20 -4 28 -16 9 -8 -13 -45 32 -45 54 0 9 -4 16 -8 16
-5 0 -16 16 -25 35 -10 21 -24 35 -35 35 -10 0 -27 6 -37 14 -22 16 -55 10
-55 -10 0 -8 -4 -14 -9 -14 -7 0 -7 -35 2 -80 7 -31 20 -49 40 -56 11 -3 25
-11 31 -16 6 -5 20 -15 31 -22 16 -12 17 -16 6 -30 -11 -14 -11 -16 3 -16 20
0 43 -53 26 -58 -6 -2 9 -23 34 -47 26 -24 46 -50 46 -59 0 -9 5 -16 11 -16 5
0 7 6 3 13 -4 7 -3 9 2 4 5 -5 9 -12 9 -16 0 -5 15 -21 33 -36 22 -19 30 -30
22 -35 -9 -6 -9 -9 -1 -14 6 -4 9 -12 6 -17 -4 -5 -1 -9 6 -9 17 0 139 -125
139 -142 0 -7 27 -44 60 -82 33 -38 60 -74 60 -80 0 -6 14 -24 30 -39 17 -16
30 -34 30 -41 0 -7 9 -21 20 -31 12 -10 19 -24 16 -31 -2 -6 6 -22 19 -34 25
-23 28 -39 10 -52 -5 -4 3 -11 18 -17 33 -13 35 -21 5 -14 -21 4 -22 3 -5 -10
22 -18 22 -28 0 -21 -15 5 -15 3 2 -11 20 -17 20 -17 -5 -10 -25 8 -25 8 -6
-13 15 -18 16 -24 6 -37 -8 -10 -9 -15 -2 -15 6 0 9 -7 5 -15 -3 -9 3 -25 12
-35 10 -11 13 -20 7 -20 -6 0 -14 5 -17 10 -3 6 -11 10 -17 10 -6 0 -3 -9 7
-20 20 -22 8 -28 -14 -7 -8 6 -6 0 4 -15 17 -28 9 -38 -13 -16 -9 9 -12 9 -12
1 0 -7 5 -15 10 -18 21 -13 9 -27 -20 -23 -33 5 -37 -1 -17 -21 10 -11 8 -13
-12 -8 -22 5 -22 4 8 -25 34 -34 40 -51 14 -41 -15 6 -16 4 -5 -9 10 -13 10
-17 0 -21 -10 -4 -10 -6 0 -6 16 -1 16 -41 -1 -41 -7 0 -19 6 -27 13 -8 6 -6
2 4 -10 15 -18 16 -26 7 -37 -9 -11 -8 -17 3 -28 14 -15 19 -31 17 -55 -1 -9
-8 -10 -26 -3 -33 13 -32 4 3 -14 l27 -15 -25 -1 c-23 -1 -24 -2 -7 -14 17
-13 17 -15 1 -31 -13 -12 -19 -13 -25 -4 -4 7 -5 18 -2 26 3 7 0 13 -7 13 -6
0 -8 5 -4 12 4 7 3 8 -4 4 -6 -4 -8 -14 -5 -23 6 -15 5 -16 -9 -3 -11 11 -13
20 -7 33 6 10 6 17 0 17 -5 0 -11 -6 -13 -12 -3 -7 -7 -2 -10 10 -4 12 -2 22
3 22 5 0 9 9 9 21 0 11 -4 17 -10 14 -9 -6 -11 -1 -14 38 -1 6 -7 16 -13 20
-7 4 -13 15 -13 22 0 8 -5 15 -11 15 -5 0 -7 6 -3 13 5 8 2 7 -9 -2 -16 -12
-17 -12 -10 5 6 17 5 18 -13 4 -10 -8 -16 -10 -12 -6 12 14 -30 40 -45 27 -9
-7 -16 -2 -26 20 -10 22 -19 29 -32 26 -10 -3 -24 1 -30 9 -7 8 -20 12 -30 9
-12 -4 -19 -1 -19 7 -1 7 -8 2 -16 -12 -8 -14 -13 -17 -10 -7 11 36 -35 54
-56 23 -6 -8 -8 -8 -8 1 0 16 -38 12 -45 -5 -4 -10 -9 -10 -25 -2 -12 6 -31
10 -43 8 -12 -1 -28 1 -34 5 -7 5 -13 4 -13 0 0 -5 -16 -10 -37 -11 -20 -2
-40 -5 -44 -8 -4 -2 -10 0 -14 5 -3 7 -15 7 -29 1 -19 -7 -28 -4 -42 11 -18
20 -40 27 -29 9 10 -15 -18 -12 -43 6 -21 14 -22 14 -22 -5 0 -17 -4 -19 -24
-11 -13 5 -27 6 -30 3 -3 -3 -12 0 -21 7 -10 8 -15 9 -15 1 0 -6 -7 -11 -15
-11 -9 0 -12 -6 -9 -15 10 -24 -4 -18 -43 20 -34 33 -62 47 -48 25 7 -11 -8
-14 -19 -3 -8 8 -28 13 -76 18 -19 2 -37 4 -40 5 -3 1 -9 2 -14 1 -4 -1 -14 4
-22 10 -8 6 -14 9 -14 6 0 -4 -18 0 -40 8 -28 10 -40 11 -40 3 0 -6 -10 -3
-22 8 -12 10 -18 13 -14 7 10 -17 -4 -16 -28 2 -16 12 -20 12 -33 -1 -20 -19
-40 -18 -45 4 -3 11 -16 18 -37 20 -17 1 -54 13 -83 26 -40 18 -58 22 -81 15
-40 -11 -47 -25 -34 -63 12 -35 34 -55 60 -56 9 0 17 -6 17 -12 0 -8 3 -9 8
-3 4 6 16 11 27 12 11 1 14 0 7 -3 -18 -8 -4 -24 22 -24 19 0 23 -5 20 -26 -2
-25 -2 -25 18 -7 21 18 21 18 9 -4 -6 -12 -11 -23 -11 -25 0 -3 22 -7 57 -10
7 -1 11 -6 10 -12 -2 -10 0 -11 78 -22 42 -5 46 -8 27 -15 -34 -13 -26 -21 18
-17 32 3 40 0 40 -13 0 -14 8 -16 46 -11 27 3 45 1 41 -4 -3 -5 29 -10 70 -12
42 -1 81 -6 87 -10 6 -3 18 -7 26 -7 8 0 14 -7 12 -16 -3 -20 39 -33 70 -23
17 5 20 3 15 -10 -7 -19 -3 -20 24 -5 27 14 109 19 109 7 0 -5 4 -7 9 -4 5 3
48 8 95 11 61 4 86 2 86 -6 0 -6 7 -9 15 -5 8 3 15 1 15 -5 0 -6 7 -9 15 -5 8
3 15 2 15 -3 0 -15 51 -23 66 -10 12 9 13 9 9 -2 -4 -10 2 -16 17 -17 13 -2
32 -4 43 -6 11 -2 35 -4 52 -5 l33 -1 -23 -22 -22 -23 23 -3 c24 -4 29 -21 10
-42 -11 -12 -10 -12 4 -2 27 21 33 -6 6 -28 -13 -11 -16 -18 -7 -15 9 3 22 -1
29 -10 10 -12 10 -15 -1 -15 -8 -1 -3 -7 11 -14 26 -15 39 -66 17 -66 -7 0 -6
-4 3 -10 13 -9 13 -10 0 -10 -8 -1 -1 -8 15 -16 17 -8 22 -12 13 -9 -10 2 -18
0 -18 -5 0 -6 5 -10 11 -10 6 0 9 -7 5 -15 -3 -8 3 -20 13 -27 10 -8 17 -24
16 -40 -1 -18 4 -28 17 -31 23 -6 24 -27 1 -28 -15 0 -15 -2 2 -9 11 -5 14 -9
8 -9 -7 -1 -13 -5 -13 -10 0 -5 9 -7 19 -4 20 5 23 -10 7 -36 -6 -9 -3 -17 8
-23 16 -9 16 -11 1 -28 -15 -16 -14 -18 7 -23 22 -6 22 -7 3 -21 -15 -11 -22
-11 -27 -3 -5 8 -8 7 -9 -3 0 -8 -5 -4 -9 10 -5 16 -8 19 -9 8 -1 -15 -5 -16
-27 -6 -19 9 -24 18 -21 34 3 17 0 20 -16 16 -14 -4 -18 -2 -12 7 5 10 2 11
-14 6 -15 -4 -21 -2 -21 9 0 8 -5 18 -12 22 -7 4 -8 3 -4 -4 4 -7 3 -12 -2
-12 -6 0 -12 7 -16 15 -7 19 -26 19 -26 0 0 -8 -4 -15 -10 -15 -5 0 -10 9 -10
21 0 15 -5 19 -15 15 -8 -3 -15 -1 -15 4 0 6 -5 10 -11 10 -5 0 -7 -4 -4 -10
3 -5 2 -10 -4 -10 -5 0 -12 6 -14 13 -4 9 -8 9 -15 -1 -7 -11 -10 -9 -15 7 -4
16 -11 20 -29 17 -12 -2 -22 -10 -20 -17 2 -9 -1 -9 -14 2 -16 12 -17 12 -11
-4 6 -16 4 -16 -21 -3 -25 13 -30 12 -52 -5 -14 -10 -31 -19 -37 -19 -7 0 -13
-4 -13 -10 0 -5 -11 -10 -25 -10 -14 0 -25 -4 -25 -8 0 -5 -7 -9 -15 -10 -8
-1 -22 -3 -30 -4 -8 -1 -15 -5 -15 -10 0 -5 -4 -6 -10 -3 -6 3 -10 -4 -10 -16
0 -18 -3 -20 -12 -11 -15 15 -32 16 -23 2 3 -5 1 -10 -6 -10 -6 0 -9 -8 -6
-19 5 -20 -7 -29 -53 -37 -14 -3 -27 -9 -28 -15 -2 -5 -8 -7 -13 -4 -5 4 -19
-4 -32 -17 -13 -13 -41 -36 -62 -53 -50 -39 -85 -77 -85 -92 0 -6 -9 -15 -20
-18 -11 -4 -18 -10 -16 -13 2 -4 -14 -16 -36 -27 -36 -17 -38 -20 -22 -32 16
-12 15 -13 -7 -22 -21 -9 -22 -10 -4 -11 15 0 17 -2 6 -9 -7 -5 -22 -6 -34 -3
-13 3 -18 1 -13 -6 3 -6 -3 -13 -14 -17 -11 -4 -18 -11 -15 -16 4 -5 1 -9 -5
-9 -6 0 -9 -4 -6 -9 3 -5 -2 -11 -12 -15 -32 -11 -77 -44 -75 -54 1 -6 -11
-13 -27 -17 -20 -4 -27 -11 -23 -21 3 -8 -1 -14 -8 -14 -19 -1 -61 -40 -78
-73 -8 -15 -23 -27 -33 -27 -18 0 -25 -15 -10 -23 4 -2 1 -2 -5 -1 -7 2 -17
-4 -22 -14 -5 -9 -13 -14 -17 -10 -4 5 -14 2 -22 -5 -12 -9 -14 -9 -8 0 5 9
-1 8 -21 -2 -15 -8 -35 -17 -43 -20 -26 -10 -65 -35 -56 -35 5 0 3 -6 -3 -13
-6 -8 -8 -17 -4 -20 3 -4 1 -13 -6 -20 -9 -11 -8 -17 4 -27 8 -7 15 -9 15 -5
0 4 6 3 13 -2 6 -6 27 -10 45 -9 17 0 32 -3 32 -8 0 -5 8 -2 18 7 10 10 23 17
29 17 6 0 14 7 17 16 3 8 10 12 16 9 6 -4 8 -11 4 -16 -3 -6 3 -5 14 2 12 7
23 22 27 34 5 19 6 19 16 2 9 -14 13 -15 32 -5 12 7 27 13 34 13 7 0 19 9 28
20 15 20 15 20 8 0 -5 -16 -1 -15 25 9 17 15 35 25 41 22 6 -4 11 -3 11 2 0 9
106 96 126 103 6 2 30 26 54 54 45 52 94 86 83 58 -11 -29 45 16 69 56 12 20
31 45 42 57 12 11 27 29 34 40 7 10 10 13 7 7 -3 -7 -3 -18 0 -23 7 -11 51 44
79 98 20 39 95 112 115 112 8 0 23 8 33 17 18 16 18 16 12 -1 -7 -18 -6 -18
19 -1 15 9 24 22 20 28 -3 6 -1 7 5 3 7 -4 12 -2 12 3 0 6 5 11 11 11 5 0 7
-4 4 -10 -4 -6 2 -7 17 -1 15 6 22 15 20 27 -2 16 -1 16 7 4 9 -13 14 -13 40
3 30 17 30 17 26 -4 -4 -18 0 -21 25 -17 24 4 27 2 18 -9 -9 -11 -7 -12 7 -6
14 5 17 3 13 -9 -4 -9 -1 -15 5 -15 7 0 23 -1 37 -2 25 -2 25 -2 -5 -17 l-30
-14 29 5 c22 5 27 3 23 -9 -6 -16 19 -30 35 -19 7 3 8 1 4 -5 -5 -8 1 -12 16
-12 22 -1 22 -1 4 -15 -23 -18 -14 -20 17 -4 20 11 20 10 -3 -16 l-25 -28 28
18 c24 15 27 16 21 1 -3 -9 -10 -16 -15 -16 -5 0 -9 -5 -9 -11 0 -7 10 -9 28
-5 l27 7 -25 -21 -25 -20 25 9 c27 9 67 -9 52 -24 -4 -4 3 -2 16 4 14 8 22 8
22 1 0 -5 -6 -10 -12 -10 -8 -1 -5 -7 6 -15 13 -10 24 -11 36 -5 13 7 17 5 17
-8 0 -9 -5 -20 -11 -24 -6 -4 1 -8 15 -8 18 0 28 -6 32 -20 3 -11 11 -20 19
-20 11 0 11 2 -1 9 -8 5 -9 11 -3 15 6 3 12 2 14 -3 1 -6 16 -12 32 -15 16 -3
31 -8 35 -12 3 -4 -9 -4 -26 -1 -19 4 -33 2 -33 -3 0 -6 7 -11 15 -11 34 -3
40 -5 38 -15 -1 -5 8 -11 19 -11 12 -1 26 -7 31 -12 7 -7 2 -9 -16 -6 -15 3
-32 -1 -40 -9 -13 -13 -17 -13 -33 -1 -22 17 -38 19 -29 5 3 -5 1 -10 -6 -10
-8 0 -7 -5 2 -17 13 -16 11 -16 -15 1 -16 10 -25 13 -22 7 5 -7 -2 -11 -19
-11 -16 0 -24 -4 -19 -11 3 -6 -8 -3 -25 5 -17 9 -31 12 -31 6 0 -5 5 -10 10
-10 6 0 10 -7 10 -15 0 -18 3 -17 -38 -5 -31 8 -32 8 -20 -7 9 -12 9 -15 1 -9
-8 4 -13 2 -13 -5 0 -7 -8 -5 -20 6 -18 17 -20 17 -20 1 0 -14 -3 -15 -23 -5
-20 11 -21 11 -9 -4 12 -14 10 -17 -12 -23 -16 -4 -32 -1 -41 6 -13 10 -15 9
-15 -9 0 -19 -3 -20 -21 -10 -15 8 -19 8 -15 0 4 -6 0 -11 -8 -11 -9 0 -16 4
-16 8 0 5 -7 9 -15 9 -17 0 -28 -24 -15 -32 6 -4 10 -11 10 -16 0 -6 -4 -7
-10 -4 -5 3 -10 2 -10 -4 0 -5 6 -12 13 -14 6 -3 3 -6 -7 -6 -15 -1 -17 -4 -8
-13 18 -18 -3 -47 -30 -42 -13 2 -17 2 -10 -2 18 -9 4 -24 -16 -17 -15 6 -15
4 -4 -9 11 -14 10 -17 -5 -21 -17 -4 -17 -5 0 -6 9 0 17 -5 17 -10 0 -5 -9 -7
-20 -4 -27 7 -25 -6 2 -16 22 -8 22 -9 -9 -25 -18 -9 -40 -16 -50 -17 -16 0
-16 -1 2 -9 18 -8 18 -9 -5 -9 -14 -1 -20 -5 -15 -9 18 -13 10 -40 -18 -66
-15 -14 -27 -32 -27 -41 0 -8 -6 -15 -12 -15 -10 0 -9 -3 1 -9 10 -7 11 -10 1
-16 -10 -6 -9 -11 5 -22 18 -12 18 -13 -4 -13 -19 0 -21 -3 -12 -13 6 -8 7
-17 3 -22 -4 -4 4 -4 18 -1 19 6 21 5 10 -3 -8 -6 -26 -11 -40 -12 -24 -2 -24
-2 -2 -6 29 -6 29 -23 0 -24 -19 -1 -17 -3 7 -9 l30 -8 -28 -1 c-16 0 -26 -5
-23 -10 3 -5 15 -7 26 -4 11 3 20 0 20 -6 0 -6 -17 -11 -37 -11 -25 0 -33 -3
-24 -9 7 -5 22 -6 32 -4 10 3 19 0 19 -6 0 -6 -12 -11 -27 -11 l-28 0 25 -21
25 -20 -42 3 c-24 2 -43 0 -43 -4 0 -5 9 -8 20 -8 11 0 20 -5 20 -11 0 -6 -9
-8 -23 -4 -20 6 -19 4 7 -19 29 -26 21 -35 -15 -16 -25 14 -24 2 3 -21 l21
-19 -21 0 c-33 0 -28 -30 6 -31 26 -2 26 -2 2 -6 -48 -8 -56 -13 -40 -24 11
-8 7 -9 -15 -5 -20 5 -25 3 -16 -3 7 -5 10 -14 7 -20 -4 -6 -1 -11 6 -11 9 0
9 -3 -2 -10 -13 -8 -12 -10 3 -10 9 0 17 -4 17 -10 0 -5 -4 -10 -10 -10 -5 0
-7 -7 -4 -15 4 -9 0 -15 -7 -15 -11 0 -11 -3 1 -10 13 -9 13 -10 0 -10 -17 0
-53 -43 -56 -67 -2 -9 -7 -20 -13 -26 -6 -6 -11 -21 -11 -33 0 -13 -5 -26 -10
-29 -6 -4 -18 -24 -27 -46 -8 -21 -21 -39 -28 -39 -8 0 -17 -5 -21 -12 -5 -7
-3 -8 6 -3 10 6 12 4 7 -9 -4 -10 -10 -29 -13 -42 -4 -16 -13 -24 -28 -24 -13
0 -16 -3 -9 -8 11 -7 7 -16 -60 -125 -25 -42 -39 -118 -25 -133 3 -3 25 0 48
6 42 11 100 62 100 87 0 17 40 83 51 83 4 0 6 7 3 15 -5 11 -2 13 10 9 10 -4
18 0 22 11 5 12 9 13 14 5 5 -8 10 -1 15 19 5 23 11 31 21 27 8 -3 12 -2 9 4
-8 12 21 80 34 80 6 0 11 8 11 18 1 23 39 101 41 82 0 -8 5 0 11 19 7 25 12
31 18 21 6 -10 10 -3 15 23 4 20 10 36 14 35 3 -1 23 6 43 14 20 9 46 14 56
11 26 -6 34 9 34 60 -1 31 2 38 9 27 8 -11 9 -8 5 12 -3 15 -1 30 5 33 6 4 7
19 4 36 -4 19 -3 29 5 29 7 0 10 7 6 16 -4 9 -1 23 5 31 7 8 12 30 11 49 -1
31 1 34 13 24 10 -8 15 -9 15 -2 0 6 -5 14 -10 17 -8 5 -7 11 0 20 8 9 8 20 2
31 -11 19 -4 56 9 49 4 -3 5 10 2 29 -3 19 -1 36 5 40 6 4 9 13 5 21 -3 8 -2
27 1 41 6 22 9 24 23 12 15 -12 15 -11 4 10 -10 18 -9 22 4 22 8 0 15 7 15 15
0 8 9 20 20 27 14 9 20 24 21 48 0 31 1 32 9 13 12 -29 20 -29 13 0 -4 16 -2
19 5 8 8 -11 11 -9 15 10 3 20 5 18 6 -8 1 -31 1 -31 30 -17 17 8 33 24 36 34
4 11 11 21 16 21 18 3 25 6 62 28 20 13 37 27 37 33 0 5 5 6 10 3 6 -4 18 -1
27 7 14 11 15 10 8 -12 -7 -23 -6 -23 18 5 23 27 25 28 20 7 -3 -13 -1 -22 6
-22 6 0 11 6 11 14 0 8 7 17 16 20 8 3 12 2 9 -4 -7 -11 36 -10 51 2 7 5 16 7
22 6 5 -2 19 8 31 21 12 13 21 19 21 13 0 -6 9 -10 20 -9 11 1 20 5 20 9 0 4
8 8 18 7 10 0 12 -3 5 -6 -7 -2 -13 -11 -13 -18 0 -8 -8 -19 -17 -25 -16 -9
-15 -10 5 -5 12 4 22 4 22 1 0 -7 -61 -36 -77 -36 -20 0 -16 -20 5 -21 13 0
13 -2 -4 -9 -22 -9 -39 -28 -39 -44 0 -5 -6 -11 -14 -14 -8 -3 -11 0 -7 7 11
16 -10 13 -24 -4 -10 -12 -10 -15 4 -15 24 0 19 -16 -11 -39 -22 -16 -25 -23
-15 -29 11 -7 10 -10 -3 -16 -9 -3 -14 -10 -11 -15 4 -5 -2 -12 -11 -14 -17
-4 -17 -5 0 -6 23 -1 22 -13 -3 -34 -17 -14 -18 -21 -10 -37 11 -20 10 -21
-12 -24 -7 0 -13 -5 -14 -11 0 -5 -6 -23 -13 -39 -6 -16 -9 -31 -6 -34 2 -3 0
-11 -7 -19 -9 -11 -7 -12 7 -7 15 6 14 2 -6 -27 -13 -19 -26 -36 -29 -39 -3
-3 -6 -13 -7 -23 0 -12 4 -16 13 -13 8 3 14 1 14 -3 0 -5 -6 -12 -12 -14 -10
-4 -10 -6 0 -6 7 -1 10 -6 7 -11 -3 -6 1 -13 9 -16 9 -3 16 -10 16 -16 0 -5
-4 -7 -9 -3 -5 3 -12 1 -16 -5 -3 -5 5 -12 19 -16 14 -3 25 -9 24 -13 0 -3 1
-8 2 -11 11 -29 5 -43 -24 -57 -27 -12 -32 -20 -28 -39 4 -21 6 -22 16 -9 14
19 47 10 39 -11 -3 -8 0 -14 6 -14 6 0 11 -6 11 -12 1 -7 17 -24 38 -36 41
-27 98 -25 119 5 20 27 16 87 -7 108 -22 20 -27 41 -7 29 9 -6 9 -5 0 7 -7 9
-11 25 -8 37 2 12 0 24 -5 27 -5 3 -6 20 -3 38 3 17 6 57 7 89 1 33 4 51 9 45
5 -7 6 2 3 21 -4 20 -2 31 4 27 14 -9 12 9 -2 24 -11 10 -10 11 2 6 12 -4 16
2 18 26 1 17 6 39 11 47 7 13 10 11 16 -8 6 -17 9 -20 16 -9 5 8 6 21 4 30 -3
9 1 22 10 29 12 10 15 9 15 -6 1 -18 1 -18 14 -1 7 9 18 17 25 17 6 0 12 8 12
18 3 45 20 93 30 86 5 -3 9 5 9 18 0 18 6 23 24 23 13 0 22 -4 19 -9 -3 -5 0
-6 8 -4 8 3 13 12 13 21 -1 9 3 14 8 11 6 -4 14 0 19 7 6 10 9 11 9 2 0 -7 5
-13 10 -13 6 0 10 7 10 15 0 26 19 17 26 -12 4 -15 13 -34 20 -41 8 -7 18 -31
24 -52 6 -22 15 -40 20 -40 5 0 16 -7 24 -16 24 -23 106 -40 106 -21 0 8 4 7
12 -1 16 -16 58 -16 58 0 0 6 7 3 15 -8 8 -10 15 -14 14 -9 -4 30 1 38 14 21
12 -16 15 -15 45 20 18 21 31 42 29 48 -2 6 2 17 10 24 15 16 18 36 3 27 -6
-3 -7 1 -3 10 4 12 8 13 13 5 4 -7 10 -8 13 -3 10 15 12 78 3 91 -4 7 -1 12 8
12 11 0 16 -9 16 -29 0 -35 9 -61 21 -61 4 0 5 8 2 18 -6 14 -4 15 9 5 8 -7
18 -10 21 -6 4 3 7 1 7 -5 0 -22 20 -12 21 11 1 17 2 18 6 4 2 -9 9 -15 14
-12 5 4 9 2 9 -4 0 -6 6 -8 14 -5 9 3 17 -3 21 -15 3 -12 11 -21 16 -21 5 0 9
-10 9 -22 0 -19 2 -20 10 -8 8 12 10 10 12 -10 1 -14 2 -32 4 -40 1 -8 2 -25
3 -38 1 -13 6 -20 11 -17 6 3 11 1 11 -4 1 -6 3 -15 4 -21 1 -5 3 -14 4 -18 0
-4 10 -8 21 -9 20 -2 24 6 20 41 -1 11 3 16 9 11 6 -3 9 -11 6 -16 -4 -5 -1
-9 4 -9 7 0 9 -15 6 -36 l-4 -36 24 16 c30 20 33 8 5 -17 -20 -17 -17 -52 4
-40 6 3 6 1 -1 -8 -7 -7 -13 -20 -13 -28 0 -11 5 -10 21 5 l22 19 -19 -35
c-25 -49 -28 -74 -8 -66 12 4 15 2 10 -9 -3 -8 -2 -14 2 -14 19 3 23 -2 12
-16 -7 -8 -9 -15 -5 -15 5 0 -2 -9 -15 -20 -18 -15 -19 -20 -7 -20 20 0 29
-14 21 -34 -4 -11 -13 -15 -28 -11 -19 5 -19 5 -3 -5 14 -9 15 -15 6 -32 -15
-28 -2 -86 26 -113 46 -47 144 -38 158 14 5 21 -19 38 -27 18 -2 -7 -5 -2 -5
10 -1 12 4 25 9 28 6 3 10 2 10 -3 0 -5 17 -8 38 -7 20 2 43 -2 51 -9 12 -9
12 -8 2 12 -12 22 -69 55 -81 47 -3 -2 -3 20 0 50 4 39 1 61 -11 84 -16 30
-15 81 2 81 5 0 7 6 4 13 -2 6 -6 44 -9 82 -3 39 -9 81 -12 95 -9 33 -73 100
-97 100 -13 0 -17 5 -13 15 7 18 -3 45 -16 45 -5 0 -7 -4 -3 -9 11 -18 -15
-22 -33 -5 -16 17 -16 17 0 11 22 -8 32 7 14 22 -7 6 -16 25 -20 42 -5 25 -10
30 -23 24 -13 -4 -15 -3 -7 5 17 17 42 1 49 -31 6 -27 8 -29 19 -13 9 12 15
14 20 6 4 -7 2 -12 -3 -12 -6 0 -11 -7 -11 -16 0 -8 4 -13 8 -10 8 5 10 -1 14
-44 1 -11 6 -20 10 -20 4 0 8 9 8 20 0 11 6 20 13 20 6 0 4 5 -5 11 -10 5 -18
15 -18 20 0 6 6 7 13 3 8 -6 8 -3 -1 9 -8 9 -11 20 -8 25 7 11 -51 82 -67 82
-7 0 -6 -5 3 -11 13 -9 13 -10 0 -6 -8 2 -15 8 -15 13 0 5 -4 15 -9 23 -7 11
-5 13 7 8 14 -5 15 -2 6 20 -8 23 -8 24 6 13 12 -10 15 -10 15 1 0 8 8 4 19
-10 11 -14 21 -20 25 -13 3 6 2 13 -4 17 -5 3 -10 11 -10 17 0 6 10 2 23 -9
12 -11 27 -19 33 -16 6 2 16 -7 22 -19 l12 -23 -6 22 c-4 18 -2 22 10 17 9 -3
16 -10 16 -15 0 -5 6 -9 14 -9 7 0 19 -6 26 -14 6 -8 18 -12 26 -9 7 3 16 -2
20 -10 3 -9 12 -13 20 -10 9 3 13 12 10 19 -9 25 8 15 29 -15 10 -16 22 -28
26 -25 4 2 12 -3 17 -11 4 -9 19 -17 33 -18 13 0 28 -6 32 -12 5 -5 5 1 2 14
-5 16 -4 21 4 17 6 -4 11 -16 11 -26 0 -22 16 -35 25 -20 13 21 27 10 20 -17
-6 -27 -6 -27 9 -8 15 19 16 16 14 -35 -1 -30 0 -62 2 -70 3 -8 0 -14 -7 -13
-9 2 -9 -5 -1 -28 8 -23 13 -27 19 -17 6 9 9 4 10 -17 0 -26 2 -27 9 -10 8 19
9 19 9 -2 1 -16 6 -21 16 -17 14 6 21 -16 16 -55 -2 -7 2 -10 8 -7 6 4 8 -7 4
-31 -6 -36 -5 -37 12 -23 17 14 18 13 11 -14 -6 -24 -5 -27 6 -18 11 9 14 4
15 -24 1 -20 5 -40 11 -46 6 -6 8 0 6 19 -3 19 0 16 9 -12 9 -27 15 -35 19
-25 11 26 9 -15 -2 -44 -6 -16 -6 -27 0 -31 6 -4 10 -15 10 -25 0 -10 7 -23
17 -28 10 -6 14 -16 10 -26 -4 -9 -3 -15 2 -12 4 3 14 -6 21 -19 13 -24 38
-40 48 -30 3 3 0 11 -6 17 -14 14 -16 48 -2 48 5 0 14 -15 19 -32 5 -18 10
-25 10 -14 1 16 3 17 18 5 9 -8 19 -14 22 -14 3 0 5 -6 3 -13 -4 -17 28 -28
38 -13 5 9 9 4 14 -13 3 -14 11 -26 16 -26 6 0 10 -9 10 -20 0 -11 7 -20 15
-20 8 0 15 -7 15 -15 0 -8 5 -15 10 -15 6 0 10 -7 10 -15 0 -25 41 -95 53 -88
6 3 7 1 3 -5 -4 -6 5 -21 19 -34 14 -12 25 -28 25 -35 0 -7 4 -13 10 -13 15 0
80 -69 80 -85 0 -8 3 -15 8 -15 4 0 16 -13 27 -30 19 -29 50 -42 108 -45 19
-1 26 3 23 11 -3 7 -8 29 -12 49 -6 34 -72 115 -94 115 -6 0 -9 3 -9 7 1 5 0
11 -1 16 -1 4 -3 11 -4 17 0 5 -10 16 -21 24 -11 9 -14 16 -8 16 9 0 10 7 3
24 -5 13 -6 27 -2 32 4 4 -1 4 -11 1 -10 -4 -16 -3 -13 2 3 5 -3 20 -14 34
-11 14 -20 30 -20 35 0 5 -7 12 -15 16 -8 3 -14 9 -13 13 2 5 -7 19 -19 33
-23 24 -31 46 -13 35 19 -12 10 9 -17 37 -22 23 -24 28 -9 28 14 0 12 6 -11
35 -15 19 -33 35 -39 35 -6 0 -11 10 -11 23 0 38 -35 101 -78 141 -17 15 -24
25 -17 21 20 -10 14 1 -19 36 -22 23 -27 34 -18 40 10 6 4 25 -22 75 -19 37
-35 72 -35 76 -1 4 -2 12 -3 16 0 5 -15 23 -32 40 -18 18 -29 35 -25 39 3 3
-2 15 -11 26 -10 11 -13 18 -8 14 6 -3 11 3 11 14 0 11 -5 18 -13 15 -7 -3
-10 1 -6 10 3 7 -1 14 -8 14 -7 0 -10 3 -6 6 3 4 -5 21 -18 38 -23 30 -25 35
-25 57 0 5 -4 8 -9 4 -5 -3 -13 0 -17 6 -4 7 -3 9 3 6 6 -4 14 0 17 9 3 8 2
13 -2 11 -4 -2 -20 2 -37 10 l-30 14 28 -4 c15 -2 27 0 27 4 0 5 -9 9 -20 9
-11 0 -20 7 -20 15 0 10 -10 15 -32 15 -25 0 -29 3 -18 10 11 7 7 10 -18 10
-28 0 -31 2 -20 13 7 8 20 16 28 20 9 3 4 6 -12 6 -39 1 -82 22 -66 32 9 6 7
8 -7 9 -63 4 -103 2 -125 -4 -17 -5 -21 -5 -12 2 16 11 -13 21 -68 23 -19 1
-27 3 -17 6 9 2 17 9 17 14 0 6 -9 7 -20 4 -11 -4 -34 0 -51 9 -17 9 -44 13
-62 10 -24 -3 -27 -2 -12 4 l20 9 -20 5 c-18 4 -17 6 8 16 15 7 30 19 33 27 4
8 16 15 28 16 21 0 21 0 -1 9 -28 12 -30 20 -3 13 11 -3 20 0 20 6 0 6 7 11
15 11 8 0 15 6 15 13 0 7 12 17 27 23 26 9 26 9 7 28 -19 19 -19 20 4 14 23
-6 31 7 10 15 -7 3 4 6 26 6 33 1 38 4 33 21 -4 15 0 20 16 21 21 0 21 1 2 8
-16 7 -14 9 14 14 18 4 37 4 42 1 5 -3 9 -1 9 5 0 5 -6 12 -12 14 -7 3 -3 6
10 6 13 1 20 5 17 11 -3 6 1 10 9 10 9 0 15 3 14 8 -5 13 40 54 51 47 6 -3 11
0 11 8 0 18 74 49 96 40 12 -4 15 -3 10 5 -4 7 -1 12 8 12 9 0 16 -5 16 -11 0
-6 7 -9 15 -6 8 4 17 3 19 -2 3 -4 19 -8 36 -9 33 -1 94 -45 105 -76 5 -11 10
-14 14 -8 4 7 12 8 20 2 8 -4 20 -6 28 -3 9 4 11 0 6 -13 -4 -12 -3 -15 5 -10
7 4 12 1 12 -8 0 -8 9 -20 21 -26 11 -7 25 -25 31 -41 9 -28 11 -28 24 -12 12
16 13 16 14 2 0 -9 9 -19 20 -22 12 -3 20 -14 20 -25 0 -26 20 -40 21 -15 0
11 5 6 12 -13 7 -17 17 -29 23 -27 6 2 14 -6 18 -19 5 -18 8 -20 15 -9 7 11
10 10 14 -5 4 -17 5 -17 6 -1 0 10 5 16 10 13 5 -3 8 -14 6 -24 -1 -9 0 -11 2
-4 7 20 23 14 24 -10 0 -22 1 -22 9 -3 8 19 9 19 9 -2 1 -14 7 -23 17 -23 9 0
23 -8 30 -17 13 -17 14 -17 8 0 -3 9 -1 17 5 17 6 0 11 -6 11 -14 0 -8 9 -24
21 -37 11 -13 18 -18 14 -11 -10 19 1 14 31 -13 15 -14 32 -25 39 -25 7 0 20
-9 30 -20 10 -11 25 -20 34 -20 9 0 27 -9 41 -20 14 -11 30 -20 37 -20 6 0 13
-4 15 -10 5 -14 78 -20 78 -6 0 6 6 4 13 -5 7 -8 34 -23 60 -32 26 -9 62 -28
78 -42 34 -28 48 -30 96 -13 36 13 38 20 22 66 -7 22 -23 37 -50 49 -21 9 -39
20 -39 25 0 4 -12 8 -26 8 -14 0 -23 4 -20 9 3 5 -6 12 -21 16 -21 5 -24 8
-12 16 11 7 10 9 -6 10 -11 1 -23 1 -27 0 -3 0 -5 7 -3 17 3 21 -12 32 -43 32
-13 0 -20 4 -17 10 3 6 -4 10 -16 10 -12 0 -20 3 -16 6 7 7 -50 39 -88 48 -14
4 -23 11 -20 16 3 6 -1 10 -9 10 -23 0 -97 41 -91 50 3 5 -14 15 -37 23 -41
15 -42 15 -13 17 l30 1 -24 13 c-18 10 -20 15 -10 19 12 5 12 7 -1 16 -8 6
-11 11 -6 11 13 0 -62 64 -141 120 -24 17 -43 34 -43 39 0 5 -14 12 -30 16
-17 4 -28 11 -24 16 3 5 -7 9 -23 9 -20 0 -24 3 -14 9 9 6 -2 14 -39 26 -37
12 -48 20 -39 26 10 6 4 9 -18 9 -23 0 -33 5 -33 15 0 10 -10 15 -31 15 -17 0
-28 4 -24 10 3 6 -1 10 -10 10 -9 0 -13 -4 -10 -10 3 -5 -1 -10 -10 -10 -11 0
-15 5 -11 15 3 9 0 15 -9 15 -8 0 -15 6 -15 13 0 9 -11 12 -37 9 -35 -4 -37
-4 -23 13 14 17 13 17 -7 6 -17 -8 -23 -9 -23 0 0 7 -16 9 -51 4 -42 -6 -50
-5 -44 6 5 8 -2 5 -14 -5 -18 -16 -21 -17 -16 -3 6 13 2 15 -19 11 -14 -2 -37
-9 -51 -14 -34 -13 -38 -13 -29 3 4 6 -1 5 -12 -4 -10 -9 -41 -27 -69 -39 -53
-25 -63 -32 -101 -67 -14 -13 -29 -23 -34 -23 -5 0 -12 -10 -15 -21 -6 -17 -9
-19 -16 -8 -8 12 -11 11 -19 -3 -6 -9 -17 -15 -25 -12 -8 4 -15 1 -15 -6 0 -6
-4 -8 -10 -5 -5 3 -10 1 -10 -4 0 -6 -4 -11 -10 -11 -15 0 -12 33 5 57 10 14
11 23 4 25 -6 2 10 23 35 46 35 32 41 42 26 42 -10 0 -22 4 -25 10 -3 6 1 7 9
4 9 -3 16 -1 16 5 0 6 -5 11 -11 11 -8 0 -8 5 1 15 9 10 9 15 1 15 -20 0 -12
20 12 30 12 5 16 9 8 9 -7 1 -11 7 -7 16 3 8 0 15 -6 15 -7 0 -3 7 8 16 10 8
13 13 7 9 -8 -4 -11 -1 -7 9 3 8 12 17 21 20 11 5 13 10 4 20 -6 7 -8 16 -4
20 4 4 -1 4 -12 1 -15 -5 -12 1 10 20 21 19 24 24 8 16 -36 -18 -40 -12 -8 15
22 19 25 25 10 20 -19 -6 -19 -5 -1 8 10 8 15 19 11 25 -3 6 2 11 12 11 15 0
16 2 3 10 -12 8 -12 10 3 16 17 6 17 7 0 20 -11 9 -13 13 -4 12 7 -2 16 3 18
10 3 6 -2 12 -10 12 -22 0 -10 37 14 43 12 3 17 11 13 20 -3 10 2 21 15 28 15
10 17 16 9 26 -8 10 -5 13 11 13 28 0 27 14 -1 28 -22 10 -22 11 7 12 17 1 54
2 83 3 28 0 52 5 52 11 0 6 5 5 12 -2 18 -18 28 -15 28 9 0 19 2 20 16 8 15
-12 16 -11 10 11 -7 24 -6 24 8 6 9 -11 27 -21 42 -22 21 -2 23 0 13 12 -14
17 2 19 19 2 9 -9 12 -9 12 1 0 11 3 11 15 1 8 -7 15 -8 15 -3 0 10 22 9 95
-2 91 -14 146 -13 158 4 7 9 19 16 27 16 10 0 14 8 12 25 -3 21 -2 22 11 11 9
-7 31 -14 49 -16 23 -3 28 -2 18 5 -8 5 -11 12 -7 16 3 4 13 1 22 -6 13 -11
14 -10 9 4 -7 19 6 21 25 4 11 -10 12 -10 7 -1 -4 8 2 14 16 17 121 26 178 41
178 49 0 5 9 7 21 4 12 -3 22 0 25 8 3 7 15 11 27 8 18 -4 20 -3 7 7 -12 9 -8
11 18 6 20 -4 31 -2 27 4 -3 6 1 10 9 10 9 0 16 4 16 9 0 5 18 11 39 15 21 3
41 13 45 21 3 8 11 12 19 9 7 -2 24 4 37 16 13 11 28 20 34 20 25 0 68 51 77
91 5 23 7 44 4 47 -3 4 -29 6 -58 7 -45 0 -53 -3 -62 -22 -5 -13 -15 -23 -22
-23 -7 0 -13 -5 -13 -11 0 -7 8 -6 23 3 43 28 64 30 32 4 -32 -27 -50 -32 -60
-16 -3 5 -19 7 -35 3 -20 -4 -30 -2 -30 7 0 7 -9 2 -21 -11 -11 -13 -18 -18
-14 -11 11 21 -47 14 -71 -9 -25 -23 -49 -17 -39 10 3 9 -8 0 -24 -19 -17 -19
-30 -29 -31 -21 0 10 -3 11 -14 2 -21 -17 -138 -49 -201 -55 -16 -1 -46 -12
-65 -24 -25 -16 -42 -20 -60 -16 -14 4 -35 7 -47 7 -13 -1 -20 3 -17 8 7 12 5
12 -63 -6 -78 -20 -117 -20 -109 1 5 12 2 15 -10 10 -14 -5 -152 -36 -163 -36
-13 0 25 30 42 33 12 2 9 3 -8 2 -51 -5 -87 -15 -102 -30 -18 -18 -27 -19 -16
-2 4 6 -5 4 -20 -6 -25 -16 -26 -16 -20 0 6 17 5 17 -14 1 -23 -21 -34 -23
-30 -5 3 19 -53 9 -84 -16 -15 -12 -35 -39 -43 -59 -18 -43 -19 -43 -38 -25
-11 12 -16 10 -31 -10 -10 -13 -13 -23 -7 -23 6 0 8 -5 5 -10 -4 -7 -12 -7
-25 0 -15 8 -19 5 -25 -27 -4 -21 -16 -44 -27 -51 -13 -10 -18 -22 -15 -38 2
-14 -2 -25 -11 -29 -8 -3 -12 -11 -9 -18 3 -7 -4 -30 -14 -52 -10 -21 -19 -47
-19 -56 0 -13 -5 -17 -17 -13 -17 5 -17 5 0 -6 12 -8 15 -16 8 -28 -5 -10 -6
-24 -1 -33 8 -13 3 -16 -23 -17 -29 -1 -30 1 -14 13 13 9 15 15 7 20 -9 6 -9
10 1 16 10 6 9 12 -5 28 -19 21 -19 21 0 21 15 0 16 2 5 9 -7 5 -10 14 -7 20
4 6 0 14 -8 17 -9 3 -14 10 -11 15 3 4 12 6 20 2 8 -3 15 -2 15 1 0 4 -12 11
-27 17 -21 8 -24 13 -13 18 21 9 23 31 3 31 -15 0 -16 2 -3 10 13 8 13 10 1
10 -11 0 -9 4 5 14 19 14 19 15 0 22 -18 7 -18 8 0 21 15 11 16 13 2 13 -26 0
-32 20 -12 36 18 14 18 15 -6 9 -21 -5 -22 -4 -7 5 9 6 17 17 17 25 0 10 6 12
18 8 12 -5 10 1 -8 20 -14 15 -32 27 -40 27 -13 0 -13 1 0 10 13 9 13 10 0 10
-13 0 -13 1 0 10 12 8 12 10 -3 16 -14 5 -15 9 -6 20 10 13 6 18 -13 15 -12
-2 -10 17 2 24 19 12 -2 27 -27 20 -16 -4 -22 -2 -18 5 3 5 16 10 28 10 12 0
18 4 12 8 -13 9 -14 62 -1 62 6 0 5 5 -2 12 -17 17 -15 28 6 22 14 -5 14 -3
-2 10 -20 16 -20 16 0 16 14 1 11 4 -11 15 -24 11 -26 14 -10 14 17 1 18 3 5
11 -12 8 -13 11 -1 19 11 7 11 9 0 14 -9 4 -10 8 -4 14 13 11 17 63 4 63 -17
0 10 38 31 45 11 4 18 11 15 16 -4 5 2 9 12 9 15 0 16 2 3 10 -12 8 -12 10 2
15 9 4 14 13 11 21 -3 9 1 14 12 14 9 0 13 5 10 11 -8 12 25 40 38 32 4 -2 7
-1 6 4 -3 17 1 33 9 32 20 -3 32 2 27 12 -4 6 3 13 16 16 22 6 22 7 3 14 -18
7 -17 8 4 8 21 1 30 15 15 24 -5 2 -3 3 2 2 6 -2 21 6 34 16 21 17 21 19 5 20
-14 0 -10 5 11 14 17 8 24 14 17 15 -7 0 -10 5 -7 10 3 6 -2 10 -12 11 -12 0
-9 5 12 14 23 11 26 14 10 15 -17 0 -17 2 -5 10 12 8 12 10 -5 10 l-20 1 20
11 c11 6 27 21 35 32 8 12 28 33 44 49 17 15 26 27 21 27 -5 0 0 7 11 15 13
10 15 14 5 15 -16 0 23 41 57 59 12 6 22 19 22 29 0 9 20 47 44 85 25 37 39
67 33 67 -7 0 -4 5 5 11 9 5 15 16 12 23 -3 7 2 16 10 19 9 4 16 13 16 22 0 8
5 15 11 15 5 0 7 4 4 10 -3 5 5 21 19 35 26 26 35 76 18 102 -8 13 -71 25 -89
17z m-2022 -148 c5 3 9 -2 9 -10 0 -9 -4 -16 -10 -16 -5 0 -10 2 -10 4 0 2 -2
10 -3 18 -2 7 -2 10 0 5 3 -4 9 -5 14 -1z m1994 -67 c12 -18 -3 -22 -20 -5
-14 14 -14 16 -1 16 8 0 18 -5 21 -11z m-75 -56 c0 -5 -9 -19 -20 -33 -18 -23
-20 -24 -20 -4 0 20 17 44 32 44 4 0 8 -3 8 -7z m-152 -135 c-8 -13 -23 -38
-32 -56 -10 -19 -20 -32 -22 -29 -8 8 25 81 43 95 24 18 27 15 11 -10z m12
-32 c0 -7 -7 -19 -15 -26 -16 -13 -20 -3 -9 24 8 20 24 21 24 2z m-1488 -61
c34 -39 18 -39 -22 0 -22 21 -40 43 -40 49 0 10 33 -16 62 -49z m1335 -147
c-7 -3 -16 -6 -21 -6 -5 0 -13 -6 -17 -14 -13 -19 -12 14 1 47 l10 27 19 -24
c14 -16 16 -25 8 -30z m-108 -110 c-13 -24 -24 -44 -24 -44 0 -1 -11 -5 -25
-9 -24 -7 -24 -7 -7 12 9 11 17 23 17 28 0 4 -8 2 -17 -5 -10 -7 2 5 27 27 25
23 47 39 49 38 1 -2 -7 -23 -20 -47z m51 -27 c0 -12 -9 -20 -24 -23 -24 -5
-24 -4 -9 19 18 28 33 30 33 4z m-1020 -53 c34 -46 40 -73 10 -40 -11 12 -20
25 -20 30 0 5 -7 15 -15 22 -14 12 -20 30 -10 30 3 0 18 -19 35 -42z m246
-273 c-3 -19 -16 -32 -16 -16 0 7 -4 9 -10 6 -5 -3 -10 -2 -10 4 0 5 8 12 18
14 9 3 18 5 19 6 1 0 0 -6 -1 -14z m14 -40 c-7 -8 -17 -15 -22 -15 -6 0 -5 7
2 15 7 8 17 15 22 15 6 0 5 -7 -2 -15z m-57 -49 c-3 -6 0 -5 8 2 7 6 16 12 19
12 4 0 7 -6 7 -12 0 -7 4 -20 7 -29 5 -11 1 -19 -10 -23 -14 -5 -15 -4 -4 9
14 17 0 21 -16 5 -15 -15 -38 15 -39 51 -1 26 0 27 17 12 10 -8 15 -21 11 -27z
m598 35 c-10 -6 -10 -13 -2 -29 8 -15 8 -21 -2 -25 -9 -3 -9 -7 1 -20 8 -9 11
-21 7 -27 -10 -16 -35 -12 -35 6 0 11 5 14 16 10 13 -5 14 -4 6 7 -6 7 -10 23
-7 35 2 12 0 22 -5 22 -5 0 -7 7 -4 15 4 8 14 15 23 15 13 0 13 -2 2 -9z
m-586 -121 c3 -5 1 -10 -4 -10 -6 0 -11 5 -11 10 0 6 2 10 4 10 3 0 8 -4 11
-10z m546 -77 c13 -17 13 -17 -6 -3 -11 8 -22 16 -24 17 -2 2 0 3 6 3 6 0 17
-8 24 -17z m-2278 -18 c-3 -9 -8 -14 -10 -11 -3 3 -2 9 2 15 9 16 15 13 8 -4z
m2320 -21 c-13 -11 -14 -17 -5 -20 6 -3 12 -12 12 -20 0 -9 5 -12 13 -8 6 4 3
-2 -7 -14 -17 -19 -16 -25 4 -24 12 0 29 -27 20 -33 -6 -3 -10 -1 -10 5 0 8
-10 10 -27 6 -16 -3 -23 -3 -16 0 9 4 7 14 -7 36 -17 28 -17 33 -4 53 8 12 11
30 8 40 -6 15 -4 16 15 5 22 -11 22 -12 4 -26z m1594 29 c-9 -2 -15 -9 -12
-14 4 -5 -1 -9 -9 -9 -8 0 -31 -8 -51 -17 -24 -12 -38 -14 -46 -6 -11 11 81
52 116 51 17 0 17 -1 2 -5z m-149 -10 c-10 -2 -26 -2 -35 0 -10 3 -2 5 17 5
19 0 27 -2 18 -5z m292 -3 c0 -5 -5 -10 -11 -10 -5 0 -7 5 -4 10 3 6 8 10 11
10 2 0 4 -4 4 -10z m-2340 -20 c0 -5 -4 -10 -10 -10 -5 0 -10 5 -10 10 0 6 5
10 10 10 6 0 10 -4 10 -10z m570 -100 c0 -16 -4 -30 -10 -30 -5 0 -10 2 -10 4
0 2 -3 12 -7 22 -4 12 -3 15 5 10 17 -10 14 15 -3 38 -8 11 -15 29 -15 40 0
15 5 11 20 -17 11 -20 20 -50 20 -67z m1100 73 c0 -5 28 -7 62 -6 35 2 55 -1
46 -5 -10 -4 -39 -6 -65 -6 -27 1 -65 2 -86 3 -23 1 -36 5 -32 11 7 12 75 14
75 3z m-1140 -48 c0 -5 -5 -3 -10 5 -5 8 -10 20 -10 25 0 6 5 3 10 -5 5 -8 10
-19 10 -25z m-1992 -11 c12 -8 26 -13 31 -9 5 3 12 1 16 -5 3 -5 19 -10 35
-10 16 0 32 -4 35 -10 9 -14 -97 -2 -140 16 -20 8 -33 19 -30 24 9 14 27 12
53 -6z m2685 0 c-3 -8 -12 -13 -20 -10 -8 3 -12 2 -9 -3 3 -5 -10 -12 -29 -15
-24 -5 -33 -11 -29 -19 5 -9 4 -9 -6 0 -11 10 -11 15 0 27 7 9 16 13 22 10 5
-3 14 -1 21 4 7 5 21 12 32 15 11 2 21 5 22 6 1 0 0 -6 -4 -15z m-2165 -6 c21
-21 13 -27 -20 -16 -48 16 -57 28 -22 28 17 0 35 -5 42 -12z m-348 -44 c0 -2
-9 -4 -20 -4 -11 0 -20 4 -20 9 0 5 9 7 20 4 11 -3 20 -7 20 -9z m370 -6 c0
-9 -12 -10 -145 -11 -53 0 -98 4 -110 11 -16 10 8 11 117 9 76 -1 138 -5 138
-9z m1508 0 c-2 -7 7 -17 20 -23 12 -5 22 -13 22 -18 0 -4 -4 -5 -10 -2 -17
11 -32 -5 -19 -21 6 -8 7 -14 2 -14 -5 0 -15 12 -21 26 -7 15 -17 22 -24 18
-7 -5 -8 -2 -3 7 21 36 37 49 33 27z m-1243 -17 c3 -5 0 -13 -6 -17 -8 -5 -9
-3 -4 6 6 9 1 10 -16 5 -19 -5 -21 -4 -9 4 19 13 27 14 35 2z m108 -6 c-3 -9
-8 -14 -10 -11 -3 3 -2 9 2 15 9 16 15 13 8 -4z m112 5 c3 -5 1 -10 -4 -10 -6
0 -11 5 -11 10 0 6 2 10 4 10 3 0 8 -4 11 -10z m-148 -6 c-3 -3 -12 -4 -19 -1
-8 3 -5 6 6 6 11 1 17 -2 13 -5z m1650 -11 c4 -10 -26 -27 -34 -20 -2 2 -1 12
3 21 7 18 25 17 31 -1z m-1712 -13 c-3 -5 -12 -10 -18 -10 -7 0 -6 4 3 10 19
12 23 12 15 0z m1267 -54 l23 5 -22 -12 c-23 -12 -37 -46 -21 -51 6 -2 12 -32
14 -66 1 -34 6 -72 10 -85 3 -12 3 -19 -1 -15 -16 15 -42 137 -32 147 8 8 6
11 -6 11 -9 0 -18 6 -18 13 -1 6 -3 31 -4 54 l-3 43 19 -24 c13 -16 26 -23 41
-20z m418 -17 c0 -4 -10 -10 -22 -13 -22 -7 -22 -7 -3 -16 19 -8 19 -8 -5 -18
-14 -6 -19 -11 -11 -11 11 -1 11 -4 0 -18 -12 -15 -12 -16 1 -8 12 6 12 5 3
-5 -13 -14 -37 -4 -27 12 4 7 2 8 -4 4 -6 -4 -9 -14 -6 -24 5 -15 4 -14 -6 1
-9 15 -8 22 5 37 9 10 18 31 18 47 2 38 27 58 45 36 6 -9 12 -20 12 -24z
m-525 21 c3 -5 1 -10 -4 -10 -6 0 -11 5 -11 10 0 6 2 10 4 10 3 0 8 -4 11 -10z
m-435 -39 c0 -11 -4 -23 -10 -26 -5 -3 -10 -1 -10 4 0 6 -8 11 -17 11 -16 1
-16 2 1 15 27 20 36 19 36 -4z m444 -30 c-7 -8 -30 25 -26 37 3 9 8 6 16 -10
7 -12 11 -25 10 -27z m116 4 c0 -8 -2 -15 -4 -15 -2 0 -6 7 -10 15 -3 8 -1 15
4 15 6 0 10 -7 10 -15z m-625 -26 c-9 -14 -29 -11 -51 7 -10 8 -14 13 -7 10 6
-4 14 -2 18 4 4 7 13 7 26 0 11 -6 17 -15 14 -21z m30 -9 c-3 -5 -11 -10 -16
-10 -6 0 -7 5 -4 10 3 6 11 10 16 10 6 0 7 -4 4 -10z m478 -4 c4 -10 1 -13 -9
-9 -7 3 -14 9 -14 14 0 14 17 10 23 -5z m-526 -9 c10 4 14 2 12 -6 -3 -7 -9
-13 -14 -13 -6 0 -18 -4 -27 -9 -21 -11 -22 -6 -6 21 7 11 14 16 16 11 2 -6
10 -7 19 -4z m1150 7 c-3 -3 -12 -4 -19 -1 -8 3 -5 6 6 6 11 1 17 -2 13 -5z
m-503 -19 c-4 -8 -8 -15 -10 -15 -2 0 -4 7 -4 15 0 8 4 15 10 15 5 0 7 -7 4
-15z m356 -14 c0 -5 -7 -12 -16 -15 -10 -4 -13 -13 -9 -26 5 -14 2 -20 -10
-20 -9 0 -15 3 -13 8 22 45 33 62 40 62 4 0 8 -4 8 -9z m-1220 -53 c0 -3 -11
-1 -24 5 -18 9 -22 15 -14 24 8 11 13 10 24 -4 7 -10 14 -21 14 -25z m218 23
c-7 -11 -15 -18 -20 -15 -11 7 3 34 18 34 12 0 12 -4 2 -19z m390 -37 c-4 -6
-6 -13 -3 -16 3 -3 -5 -13 -16 -24 -22 -19 -22 -19 -9 5 8 16 9 26 2 30 -12 7
-11 29 2 49 6 11 11 8 21 -10 6 -13 8 -28 3 -34z m552 31 c-7 -8 -9 -15 -5
-15 4 0 2 -6 -4 -14 -9 -11 -9 -15 0 -18 15 -5 -6 -48 -24 -48 -9 0 -9 2 0 8
7 4 11 17 9 28 -5 23 21 90 31 81 3 -4 0 -13 -7 -22z m-980 -26 c0 -11 -4 -18
-10 -14 -5 3 -7 12 -3 20 7 21 13 19 13 -6z m-188 -39 c-4 -3 -10 -9 -14 -15
-7 -8 -6 1 1 45 1 3 5 -2 11 -10 5 -8 6 -17 2 -20z m1198 16 c0 -3 -4 -8 -10
-11 -5 -3 -10 -1 -10 4 0 6 5 11 10 11 6 0 10 -2 10 -4z m-990 -10 c0 -3 -4
-8 -10 -11 -5 -3 -10 -1 -10 4 0 6 5 11 10 11 6 0 10 -2 10 -4z m-190 -36 c0
-5 -5 -10 -11 -10 -5 0 -7 5 -4 10 3 6 8 10 11 10 2 0 4 -4 4 -10z m1134 -24
c-10 -8 -21 -12 -23 -10 -3 2 4 11 15 18 10 8 21 12 23 10 3 -2 -4 -11 -15
-18z m-1427 -2 c-3 -3 -12 -4 -19 -1 -8 3 -5 6 6 6 11 1 17 -2 13 -5z m1143
-25 c-7 -11 -14 -18 -17 -15 -3 3 0 12 7 21 18 21 23 19 10 -6z m180 17 c0 -2
-7 -7 -16 -10 -8 -3 -12 -2 -9 4 6 10 25 14 25 6z m-889 -23 c13 -16 12 -17
-3 -4 -17 13 -22 21 -14 21 2 0 10 -8 17 -17z m-136 -3 c3 -5 1 -10 -4 -10 -6
0 -11 5 -11 10 0 6 2 10 4 10 3 0 8 -4 11 -10z m191 -17 c-10 -10 -19 5 -10
18 6 11 8 11 12 0 2 -7 1 -15 -2 -18z m61 11 c-3 -3 -12 -4 -19 -1 -8 3 -5 6
6 6 11 1 17 -2 13 -5z m-354 -56 c-15 -4 -29 -5 -32 -3 -2 3 1 5 8 5 7 0 11 6
8 14 -4 11 -1 11 18 2 l24 -11 -26 -7z m967 28 c0 -2 -8 -10 -17 -17 -16 -13
-17 -12 -4 4 13 16 21 21 21 13z m234 -12 c3 -8 2 -12 -4 -9 -6 3 -10 10 -10
16 0 14 7 11 14 -7z m-829 -14 c-3 -5 -11 -10 -16 -10 -6 0 -7 5 -4 10 3 6 11
10 16 10 6 0 7 -4 4 -10z m-355 -20 c0 -5 -2 -10 -4 -10 -3 0 -8 5 -11 10 -3
6 -1 10 4 10 6 0 11 -4 11 -10z m237 -12 c-3 -8 -6 -5 -6 6 -1 11 2 17 5 13 3
-3 4 -12 1 -19z m110 6 c-3 -3 -12 -4 -19 -1 -8 3 -5 6 6 6 11 1 17 -2 13 -5z
m-33 -23 c3 -5 -1 -14 -8 -20 -12 -10 -14 -9 -11 6 2 10 4 19 4 21 2 5 10 2
15 -7z m-282 -81 c6 0 9 -2 6 -5 -12 -12 -37 7 -30 23 6 16 7 15 10 0 2 -10 8
-18 14 -18z m1102 -45 c-9 -14 -19 -23 -22 -20 -5 4 26 45 35 45 2 0 -4 -11
-13 -25z m-525 -37 c-5 -10 -12 -18 -14 -18 -2 0 -3 8 -2 18 0 10 7 19 13 19
9 0 10 -5 3 -19z m1105 10 c-6 -16 -70 -49 -78 -41 -12 12 -5 22 11 16 12 -5
14 -3 8 7 -5 9 -4 11 3 6 7 -4 22 0 34 8 27 19 29 19 22 4z m-84 -57 c3 -2 -5
-1 -18 2 -16 4 -26 0 -35 -14 -6 -10 -17 -19 -24 -19 -19 0 -16 9 15 35 26 23
32 22 62 -4z m-2045 1 c-3 -3 -11 0 -18 7 -9 10 -8 11 6 5 10 -3 15 -9 12 -12z
m926 -32 c28 -39 42 -70 31 -70 -4 1 -25 17 -47 37 -22 20 -34 33 -27 29 9 -6
11 0 7 26 -7 35 -4 34 36 -22z m1526 35 c0 -8 -4 -15 -8 -15 -11 0 -20 16 -12
24 11 11 20 7 20 -9z m-2369 -20 c-3 -3 -9 2 -12 12 -6 14 -5 15 5 6 7 -7 10
-15 7 -18z m1005 5 c-3 -12 -8 -19 -11 -16 -5 6 5 36 12 36 2 0 2 -9 -1 -20z
m1316 -1 c-11 -7 -9 -9 6 -10 11 0 14 -3 7 -6 -6 -2 -10 -9 -6 -14 3 -5 1 -9
-4 -9 -11 0 -23 40 -16 52 3 5 10 5 16 2 6 -4 5 -10 -3 -15z m-1537 -11 c-6
-6 -16 -7 -22 -3 -9 6 -9 9 1 16 17 10 34 0 21 -13z m112 6 c17 -16 13 -34 -7
-34 -8 0 -7 3 2 9 11 7 9 10 -8 16 -11 3 -21 11 -21 16 0 14 17 11 34 -7z
m1344 4 c16 -16 15 -33 -1 -19 -8 6 -16 9 -19 6 -2 -3 -5 2 -5 10 0 18 9 19
25 3z m-2578 -2 c0 -3 -4 -8 -10 -11 -5 -3 -10 -1 -10 4 0 6 5 11 10 11 6 0
10 -2 10 -4z m1276 -32 c-6 -19 -12 -28 -14 -20 -3 13 14 56 22 56 2 0 -2 -16
-8 -36z m914 -4 c-10 -24 -15 -28 -22 -18 -8 10 -11 10 -15 1 -2 -7 -9 -13
-15 -13 -5 0 -29 -14 -54 -30 -27 -19 -41 -25 -38 -15 4 10 0 15 -12 16 -11 1
-1 6 21 12 51 15 67 26 59 39 -4 7 -2 8 5 4 6 -4 25 4 42 19 38 31 46 26 29
-15z m-1610 10 c0 -5 -9 -10 -20 -10 -11 0 -20 -5 -20 -12 0 -6 -3 -8 -7 -4
-5 4 1 14 11 22 23 16 36 18 36 4z m849 -42 c8 -2 -7 -10 -35 -18 -55 -15 -79
-30 -47 -30 11 0 34 -7 49 -15 16 -8 22 -15 14 -15 -13 0 -13 -1 0 -10 26 -17
1 -11 -45 11 -30 14 -45 28 -45 40 0 10 6 19 13 19 9 0 9 2 -1 9 -10 6 -3 13
25 24 30 12 40 13 48 3 6 -7 17 -15 24 -18z m-128 -5 c-8 -15 -10 -15 -11 -2
0 17 10 32 18 25 2 -3 -1 -13 -7 -23z m-137 -8 c38 -16 22 -24 -47 -22 -55 1
-76 14 -61 38 6 11 64 2 108 -16z m-1264 1 c0 -2 -7 -6 -15 -10 -8 -3 -15 -1
-15 4 0 6 7 10 15 10 8 0 15 -2 15 -4z m678 -31 c-3 -3 -9 2 -12 12 -6 14 -5
15 5 6 7 -7 10 -15 7 -18z m36 -21 c3 -8 2 -12 -4 -9 -6 3 -10 10 -10 16 0 14
7 11 14 -7z m1380 4 c-6 -10 -4 -10 7 0 18 17 34 15 20 -2 -16 -19 -51 -27
-51 -12 0 15 10 26 22 26 5 0 6 -6 2 -12z m896 -8 c13 -8 13 -10 -2 -10 -9 0
-20 5 -23 10 -8 13 5 13 25 0z m-1723 -20 c-2 -11 -13 -29 -24 -40 -12 -10
-29 -30 -37 -42 -14 -20 -18 -21 -26 -8 -16 25 -11 65 10 83 11 9 20 14 20 11
0 -3 8 0 18 5 27 16 42 13 39 -9z m96 8 c-11 -18 -12 -67 -2 -74 5 -3 13 5 18
18 8 22 8 22 25 -9 20 -39 20 -49 2 -34 -28 24 -125 14 -154 -15 -7 -8 -19
-14 -25 -14 -7 0 0 12 16 25 15 13 27 29 27 35 0 5 4 10 10 10 5 0 7 6 4 13
-2 7 3 21 11 32 15 19 16 18 11 -18 -5 -45 14 -46 26 -2 4 15 13 32 20 36 18
12 20 11 11 -3z m92 -35 c59 -49 64 -63 18 -56 -29 5 -35 3 -28 -8 5 -8 4 -11
-1 -6 -5 5 -8 12 -8 15 1 4 -7 24 -17 44 -31 61 -25 63 36 11z m-1463 -5 c-7
-7 -12 -8 -12 -2 0 14 12 26 19 19 2 -3 -1 -11 -7 -17z m639 -21 c-10 -9 -11
-8 -5 6 3 10 9 15 12 12 3 -3 0 -11 -7 -18z m39 3 c0 -5 -5 -10 -11 -10 -5 0
-7 5 -4 10 3 6 8 10 11 10 2 0 4 -4 4 -10z m2326 -8 c-3 -5 13 -22 34 -38 22
-16 40 -33 40 -38 0 -4 -17 4 -37 19 -69 51 -65 47 -51 56 17 11 20 11 14 1z
m-3232 -17 c-6 -16 -74 -59 -81 -51 -4 4 74 66 83 66 2 0 1 -7 -2 -15z m914
-20 c-3 -3 -9 2 -12 12 -6 14 -5 15 5 6 7 -7 10 -15 7 -18z m62 -6 c0 -5 -6
-9 -14 -9 -8 0 -22 -3 -32 -7 -16 -6 -16 -5 -4 8 15 17 50 23 50 8z m-961 -38
c-28 -24 -40 -26 -33 -7 5 14 46 37 53 30 2 -2 -7 -12 -20 -23z m981 -1 c0 -5
-4 -10 -9 -10 -6 0 -13 5 -16 10 -3 6 1 10 9 10 9 0 16 -4 16 -10z m2424 1 c3
-5 -8 -14 -25 -21 -25 -11 -32 -11 -39 0 -5 8 -6 18 -4 22 7 11 61 10 68 -1z
m-3444 -41 c-20 -13 -33 -13 -25 0 3 6 14 10 23 10 15 0 15 -2 2 -10z m-120
-25 c0 -8 -7 -15 -16 -15 -14 0 -14 3 -4 15 7 8 14 15 16 15 2 0 4 -7 4 -15z
m3530 -86 c0 -6 -4 -7 -10 -4 -5 3 -10 11 -10 16 0 6 5 7 10 4 6 -3 10 -11 10
-16z m-1758 -13 c11 -16 10 -23 -8 -30 -12 -5 -14 -1 -8 17 6 21 6 22 -14 4
-19 -17 -41 -9 -28 11 7 12 50 10 58 -2z m-42 -40 c0 -11 -19 -15 -25 -6 -3 5
1 10 9 10 9 0 16 -2 16 -4z m-1840 -11 c0 -12 -101 -108 -127 -122 -18 -9 -4
10 42 56 63 64 85 81 85 66z m1880 -13 c0 -12 -3 -12 -15 -2 -8 7 -15 13 -15
15 0 1 7 2 15 2 8 0 15 -7 15 -15z m69 -48 c0 -4 5 -11 13 -15 11 -7 11 -9 0
-9 -23 0 -41 26 -35 50 l6 24 8 -22 c5 -12 8 -25 8 -28z m-67 4 c-7 -7 -12 -8
-12 -2 0 6 3 14 7 17 3 4 9 5 12 2 2 -3 -1 -11 -7 -17z m808 2 c0 -5 -5 -10
-11 -10 -5 0 -7 5 -4 10 3 6 8 10 11 10 2 0 4 -4 4 -10z m-130 -21 c0 -4 -7
-6 -15 -3 -8 4 -15 10 -15 15 0 4 7 6 15 3 8 -4 15 -10 15 -15z m250 11 c-8
-5 -22 -10 -30 -10 -13 0 -13 1 0 10 8 5 22 10 30 10 13 0 13 -1 0 -10z
m-2952 -12 c-4 -15 -87 -62 -96 -54 -3 3 0 6 6 6 6 0 26 14 44 30 34 32 50 38
46 18z m1392 -48 c0 -6 -11 -8 -27 -4 -40 10 -41 14 -5 14 18 0 32 -5 32 -10z
m50 -10 c0 -5 -5 -10 -11 -10 -5 0 -7 5 -4 10 3 6 8 10 11 10 2 0 4 -4 4 -10z
m71 -3 c-5 -5 -17 -5 -28 2 -16 9 -15 10 9 9 16 -2 24 -6 19 -11z m-261 -3 c0
-8 -43 -43 -54 -44 -5 0 1 11 14 25 22 24 40 32 40 19z m100 3 c0 -2 -8 -12
-19 -21 -17 -16 -19 -16 -25 0 -4 12 -2 15 9 11 8 -4 17 -2 20 3 6 10 15 13
15 7z m-70 -16 c0 -5 -7 -12 -16 -15 -14 -5 -15 -4 -4 9 14 17 20 19 20 6z
m1590 -1 c0 -5 -2 -10 -4 -10 -3 0 -8 5 -11 10 -3 6 -1 10 4 10 6 0 11 -4 11
-10z m-1705 -20 c3 -5 -1 -10 -10 -10 -9 0 -13 5 -10 10 3 6 8 10 10 10 2 0 7
-4 10 -10z m1925 -4 c0 -3 -4 -8 -10 -11 -5 -3 -10 -1 -10 4 0 6 5 11 10 11 6
0 10 -2 10 -4z m-1963 -12 c-3 -3 -12 -4 -19 -1 -8 3 -5 6 6 6 11 1 17 -2 13
-5z m1363 -24 c0 -5 -2 -10 -4 -10 -3 0 -8 5 -11 10 -3 6 -1 10 4 10 6 0 11
-4 11 -10z m-706 -26 c3 -8 2 -12 -4 -9 -6 3 -10 10 -10 16 0 14 7 11 14 -7z
m748 9 c-6 -2 -10 -8 -8 -12 3 -4 -4 -8 -15 -8 -24 -2 -25 14 -1 20 24 6 40 7
24 0z m568 -13 c0 -5 -2 -10 -4 -10 -3 0 -8 5 -11 10 -3 6 -1 10 4 10 6 0 11
-4 11 -10z m29 -2 c-1 -7 1 -21 6 -31 4 -11 3 -23 -4 -30 -8 -8 -11 -7 -13 4
-5 49 -4 69 4 69 5 0 8 -6 7 -12z m-3222 -34 c-3 -3 -12 -4 -19 -1 -8 3 -5 6
6 6 11 1 17 -2 13 -5z m2621 -29 c-3 -3 -9 2 -12 12 -6 14 -5 15 5 6 7 -7 10
-15 7 -18z m98 -56 c3 -6 -5 -3 -20 6 -14 10 -26 19 -26 22 0 7 39 -17 46 -28z
m-969 -11 c-3 -8 -6 -5 -6 6 -1 11 2 17 5 13 3 -3 4 -12 1 -19z m889 -4 c-3
-9 -6 -18 -6 -20 0 -2 -4 -4 -9 -4 -5 0 -7 9 -4 20 3 11 10 20 15 20 6 0 7 -7
4 -16z m-479 -141 c-3 -10 -5 -4 -5 12 0 17 2 24 5 18 2 -7 2 -21 0 -30z
m-1291 -193 c-33 -50 -42 -52 -15 -2 31 54 31 54 36 48 3 -3 -6 -24 -21 -46z
m-26 -70 c0 -5 -5 -10 -11 -10 -5 0 -7 5 -4 10 3 6 8 10 11 10 2 0 4 -4 4 -10z
m6 -57 c-1 -21 -12 -58 -25 -83 l-22 -45 7 40 c4 22 7 48 8 58 0 9 4 17 9 17
5 0 6 7 3 16 -7 17 0 34 13 34 5 0 8 -17 7 -37z m2579 7 c9 -17 13 -36 9 -42
-4 -6 -12 3 -20 22 -24 56 -15 70 11 20z m-2678 -6 c-3 -3 -12 -4 -19 -1 -8 3
-5 6 6 6 11 1 17 -2 13 -5z m2058 -72 c1 -11 -4 -23 -10 -26 -8 -3 -12 6 -11
25 1 33 19 34 21 1z m552 -59 c-3 -10 -5 -2 -5 17 0 19 2 27 5 18 2 -10 2 -26
0 -35z m106 12 c-3 -9 -8 -14 -10 -11 -3 3 -2 9 2 15 9 16 15 13 8 -4z m-2666
-87 c-3 -7 -5 -2 -5 12 0 14 2 19 5 13 2 -7 2 -19 0 -25z m30 0 c-3 -8 -6 -5
-6 6 -1 11 2 17 5 13 3 -3 4 -12 1 -19z m744 -51 c-13 -13 -15 1 -4 30 7 17 8
17 11 -1 2 -10 -1 -23 -7 -29z m-41 3 c-24 -15 -36 -11 -14 4 10 8 21 12 24
10 2 -3 -2 -9 -10 -14z m-861 -121 c-23 -44 -43 -78 -46 -76 -10 11 68 157 84
157 2 0 -15 -36 -38 -81z m-227 -351 c-7 -7 -12 -8 -12 -2 0 14 12 26 19 19 2
-3 -1 -11 -7 -17z"/>
<path d="M2350 4300 c-8 -5 -12 -12 -9 -15 4 -3 12 1 19 10 14 17 11 19 -10 5z"/>
<path d="M3348 3853 c7 -3 16 -2 19 1 4 3 -2 6 -13 5 -11 0 -14 -3 -6 -6z"/>
<path d="M2460 2980 c0 -5 5 -10 11 -10 5 0 7 5 4 10 -3 6 -8 10 -11 10 -2 0
-4 -4 -4 -10z"/>
<path d="M3411 4067 c-6 -8 -13 -29 -16 -48 l-5 -34 13 35 c6 19 16 41 20 48
11 16 2 15 -12 -1z"/>
<path d="M2399 4015 c-8 -9 -21 -24 -30 -34 -8 -9 -13 -23 -11 -29 4 -14 -23
-44 -32 -35 -3 4 -6 1 -6 -6 0 -16 33 -28 38 -13 2 6 10 8 19 5 10 -4 14 -2
10 4 -3 5 5 31 19 58 24 49 20 83 -7 50z m-17 -57 c-7 -7 -12 -8 -12 -2 0 14
12 26 19 19 2 -3 -1 -11 -7 -17z"/>
<path d="M2363 3880 c-13 -5 -23 -15 -23 -21 0 -8 4 -9 13 0 8 6 16 9 19 6 3
-3 11 1 18 10 14 17 6 18 -27 5z"/>
<path d="M3300 2230 c0 -5 5 -10 10 -10 6 0 10 5 10 10 0 6 -4 10 -10 10 -5 0
-10 -4 -10 -10z"/>
<path d="M1945 1721 c-3 -5 -2 -12 3 -15 5 -3 9 1 9 9 0 17 -3 19 -12 6z"/>
</g>
</svg>
